<?xml version="1.0" encoding="utf-8"?>
<!-- Generator: Adobe Illustrator 26.0.2, SVG Export Plug-In . SVG Version: 6.00 Build 0)  -->
<svg version="1.1" id="Layer_1" xmlns="http://www.w3.org/2000/svg" xmlns:xlink="http://www.w3.org/1999/xlink" x="0px" y="0px"
	 viewBox="0 0 430.59 378.067" style="enable-background:new 0 0 430.59 378.067;" xml:space="preserve">
<style type="text/css">
	.Arched_x0020_Green{fill:url(#SVGID_1_);stroke:#FFFFFF;stroke-width:0.25;stroke-miterlimit:1;}
	.st0{fill:#FFFFFF;}
	.st1{fill-rule:evenodd;clip-rule:evenodd;fill:#FFFFFF;}
	.st2{fill:#1F3664;}
</style>
<linearGradient id="SVGID_1_" gradientUnits="userSpaceOnUse" x1="-823.2051" y1="662.8887" x2="-822.498" y2="662.1816">
	<stop  offset="0" style="stop-color:#1EAB4B"/>
	<stop  offset="0.9831" style="stop-color:#19361A"/>
</linearGradient>
<g>
	<path class="st2" d="M54.432,0C24.422,0,0,24.417,0,54.43v269.199c0,30.014,24.422,54.438,54.432,54.438h321.733
		c30.007,0,54.426-24.425,54.426-54.438V54.43C430.59,24.417,406.172,0,376.164,0H54.432"/>
	<path class="st0" d="M82.75,103.282c-19.554,0-35.459,15.924-35.459,35.467V239.48c0,19.543,15.905,35.457,35.459,35.457h265.642
		c19.562,0,35.46-15.914,35.46-35.457V138.748c0-19.543-15.899-35.467-35.46-35.467H82.75 M54.169,239.48V138.748
		c0-15.769,12.825-28.588,28.581-28.588h265.642c15.769,0,28.582,12.819,28.582,28.588V239.48c0,15.753-12.812,28.569-28.582,28.569
		H82.75C66.994,268.049,54.169,255.234,54.169,239.48z"/>
	<path class="st0" d="M54.432,17.604c-20.303,0-36.832,16.521-36.832,36.826v269.199c0,20.304,16.529,36.841,36.832,36.841h321.733
		c20.291,0,36.818-16.537,36.818-36.841V54.43c0-20.305-16.527-36.826-36.818-36.826H54.432 M27.225,323.629V54.43
		c0-14.989,12.216-27.193,27.206-27.193h321.733c14.98,0,27.186,12.204,27.186,27.193v269.199c0,14.992-12.206,27.192-27.186,27.192
		H54.432C39.441,350.821,27.225,338.621,27.225,323.629z"/>
	<path class="st1" d="M62.821,63.026c2.565,0,4.563-0.276,5.989-0.83c2.251-0.858,3.357-2.416,3.357-4.657
		c0-2.256-1.185-3.775-3.568-4.56c-1.342-0.44-3.343-0.664-6.003-0.664H51.752v10.711H62.821 M64.87,78.966
		c3.728,0,6.395-0.819,7.969-2.483c1.014-1.059,1.504-2.322,1.504-3.807c0-2.507-1.462-4.229-4.369-5.131
		c-1.558-0.49-3.6-0.73-6.148-0.73H51.752v12.151H64.87z M45.776,48.414h19.308c5.252,0,8.997,1.214,11.21,3.62
		c1.314,1.432,1.965,3.09,1.965,4.94c0,2.19-0.8,3.978-2.416,5.366c-0.83,0.742-2.041,1.416-3.612,2.025
		c2.314,0.679,4.041,1.432,5.177,2.285c2.006,1.504,3.036,3.581,3.036,6.217c0,2.241-0.931,4.242-2.743,6.06
		c-2.712,2.696-7.012,4.05-12.93,4.05H45.776V48.414z"/>
	<path class="st1" d="M125.507,64.25c2.862,0,5.097-0.44,6.762-1.322c1.664-0.872,2.509-2.462,2.509-4.744
		c0-2.462-1.161-4.141-3.492-5.036c-1.243-0.479-2.904-0.705-4.979-0.705H111.43V64.25H125.507 M105.361,48.414h20.785
		c3.423,0,6.237,0.385,8.47,1.156c4.223,1.47,6.335,4.194,6.335,8.153c0,2.072-0.569,3.77-1.69,5.079
		c-1.105,1.322-2.644,2.388-4.645,3.193c1.754,0.543,3.057,1.272,3.949,2.161c0.884,0.892,1.39,2.351,1.496,4.347l0.21,4.637
		c0.063,1.316,0.205,2.306,0.432,2.936c0.368,1.114,1.019,1.813,1.958,2.115v0.787h-7.462c-0.208-0.3-0.368-0.685-0.49-1.162
		c-0.127-0.478-0.229-1.374-0.319-2.723l-0.353-5.76c-0.152-2.267-1.24-3.771-3.27-4.542c-1.158-0.429-2.986-0.635-5.477-0.635
		H111.43v14.823h-6.069V48.414z"/>
	<rect x="168.139" y="48.414" class="st0" width="6.126" height="34.564"/>
	<polyline class="st0" points="233.75,48.414 233.75,52.531 218.617,52.531 218.617,82.978 212.437,82.978 212.437,52.531 
		197.298,52.531 197.298,48.414 233.75,48.414 	"/>
	<rect x="257.597" y="48.414" class="st0" width="6.15" height="34.564"/>
	<path class="st0" d="M294.509,71.831c0.142,1.953,0.738,3.549,1.806,4.76c2.012,2.295,5.566,3.436,10.664,3.436
		c2.286,0,4.36-0.24,6.246-0.747c3.634-0.974,5.437-2.705,5.437-5.231c0-1.887-0.771-3.215-2.29-4.012
		c-1.548-0.79-3.976-1.466-7.272-2.048l-6.092-1.056c-3.973-0.689-6.788-1.456-8.446-2.285c-2.851-1.441-4.273-3.602-4.273-6.466
		c0-3.107,1.396-5.653,4.195-7.649c2.78-1.991,6.746-2.99,11.854-2.99c4.708,0,8.697,0.879,11.996,2.627
		c3.293,1.751,4.953,4.537,4.953,8.384h-5.727c-0.306-1.846-0.968-3.273-1.951-4.257c-1.86-1.808-5.011-2.706-9.452-2.706
		c-3.583,0-6.169,0.579-7.736,1.742c-1.574,1.161-2.361,2.507-2.361,4.055c0,1.691,0.919,2.915,2.751,3.7
		c1.216,0.497,3.915,1.143,8.165,1.89l6.301,1.095c3.038,0.545,5.382,1.264,7.03,2.203c2.867,1.606,4.276,3.954,4.283,7.014
		c0,3.847-1.806,6.575-5.431,8.22c-3.615,1.638-7.823,2.459-12.615,2.459c-5.572,0-9.942-1.08-13.105-3.288
		c-3.154-2.18-4.715-5.126-4.66-8.852H294.509"/>
	<polyline class="st0" points="349.366,48.414 355.503,48.414 355.503,62.692 378.883,62.692 378.883,48.414 385.013,48.414 
		385.013,82.978 378.883,82.978 378.883,66.815 355.503,66.815 355.503,82.978 349.366,82.978 349.366,48.414 	"/>
	<path class="st0" d="M81.468,298.878c4.475,1.809,7.196,4.973,8.187,9.487h-6.013c-0.735-2.547-2.262-4.373-4.568-5.501
		c-2.295-1.171-5.207-1.745-8.715-1.745c-4.147,0-7.66,1.187-10.521,3.599c-2.82,2.389-4.247,5.959-4.247,10.716
		c0,4.108,1.174,7.472,3.523,10.039c2.335,2.58,6.161,3.863,11.472,3.863c4.051,0,7.403-0.906,10.05-2.709
		c2.67-1.812,4.042-4.744,4.092-8.784H70.675v-3.886h19.709v18.485h-3.897l-1.469-4.454c-2.064,1.754-3.894,2.96-5.487,3.644
		c-2.657,1.164-6.055,1.732-10.187,1.732c-5.307,0-9.879-1.329-13.71-3.98c-4.174-3.315-6.274-7.885-6.274-13.689
		c0-5.785,2.038-10.381,6.122-13.802c3.86-3.267,8.885-4.899,15.033-4.899C74.74,296.995,78.384,297.631,81.468,298.878"/>
	<polyline class="st0" points="107.285,297.885 140.038,297.885 140.038,302.123 113.207,302.123 113.207,312.619 138.026,312.619 
		138.026,316.621 113.207,316.621 113.207,328.334 140.493,328.334 140.493,332.443 107.285,332.443 107.285,297.885 	"/>
	<polyline class="st0" points="155.357,297.885 162.553,297.885 185.234,325.877 185.234,297.885 191.016,297.885 191.016,332.443 
		184.195,332.443 161.165,304.48 161.165,332.443 155.357,332.443 155.357,297.885 	"/>
	<polyline class="st0" points="208.057,297.885 240.799,297.885 240.799,302.123 213.993,302.123 213.993,312.619 238.787,312.619 
		238.787,316.621 213.993,316.621 213.993,328.334 241.264,328.334 241.264,332.443 208.057,332.443 208.057,297.885 	"/>
	<path class="st1" d="M277.02,313.719c2.844,0,5.099-0.445,6.772-1.319c1.651-0.87,2.506-2.454,2.506-4.747
		c0-2.454-1.177-4.154-3.505-5.034c-1.235-0.468-2.893-0.709-4.982-0.709h-14.854v11.809H277.02 M256.872,297.885h20.794
		c3.422,0,6.237,0.397,8.465,1.158c4.231,1.477,6.337,4.195,6.337,8.165c0,2.057-0.561,3.763-1.69,5.073
		c-1.1,1.313-2.641,2.383-4.647,3.173c1.754,0.561,3.06,1.274,3.954,2.171c0.874,0.896,1.383,2.351,1.5,4.36l0.2,4.634
		c0.068,1.303,0.216,2.283,0.429,2.928c0.371,1.1,1.016,1.819,1.958,2.125v0.771h-7.462c-0.2-0.29-0.361-0.684-0.48-1.154
		c-0.126-0.478-0.242-1.38-0.313-2.722l-0.361-5.766c-0.135-2.254-1.225-3.77-3.27-4.544c-1.164-0.413-2.993-0.632-5.476-0.632
		h-13.851v14.818h-6.085V297.885z"/>
	<path class="st1" d="M331.31,318.279l-6.827-15.266l-7.236,15.266H331.31 M321.301,297.885h6.875l16.311,34.557h-6.656
		l-4.58-10.346h-17.759l-4.853,10.346h-6.24L321.301,297.885z"/>
	<polyline class="st0" points="356.902,297.885 362.997,297.885 362.997,328.334 385.758,328.334 385.758,332.443 356.902,332.443 
		356.902,297.885 	"/>
	<path class="st0" d="M87.736,142.323h82.742c22.914,0,34.051,6.214,34.051,24.605c0,16.063-5.824,19.167-13.851,21.51v0.387
		c12.556,1.541,17.217,8.286,17.217,22.396c0,20.584-12.172,24.87-28.617,24.87H87.736V142.323 M116.479,179.496h50.889
		c5.316,0,8.419-1.948,8.419-7.245c0-5.452-3.102-7.396-8.419-7.396h-50.889V179.496z M116.479,213.548h51.542
		c6.221,0,10.352-1.433,10.352-6.859c0-6.35-4.131-7.78-10.352-7.78h-51.542V213.548z"/>
	<path class="st0" d="M223.182,175.219c0-27.448,15.399-33.927,41.304-33.927h43.245c32.626,0,37.163,11.782,37.163,30.043v2.98
		h-28.23c0-9.324-5.308-10.49-14.509-10.49h-31.184c-14.515,0-18.275,3.495-18.275,19.552v11.656
		c0,16.068,3.76,19.557,18.275,19.557h30.687c7.482,0,15.005-1.18,15.005-10.226v-2.727h-35.738v-19.421h64.487v26.661
		c0,26.934-13.992,28.24-46.357,28.24h-34.57c-25.905,0-41.304-6.476-41.304-33.933V175.219"/>
</g>
</svg>
