<?xml version="1.0" encoding="utf-8"?>
<!-- Generator: Adobe Illustrator 26.0.2, SVG Export Plug-In . SVG Version: 6.00 Build 0)  -->
<svg version="1.1" id="Layer_1" xmlns="http://www.w3.org/2000/svg" xmlns:xlink="http://www.w3.org/1999/xlink" x="0px" y="0px"
	 viewBox="0 0 232.6 67.8" style="enable-background:new 0 0 232.6 67.8;" xml:space="preserve">
<style type="text/css">
	.st0{fill:#3C3C3B;}
	.st1{fill:#3C3C3B;}
	.st2{fill:#BED137;}
	.st3{fill:#F6D808;}
</style>
<g>
	<path class="st0" d="M31.8,2.3h4.9v17.8c0,4.4,0.2,7.4,0.7,9c0.7,2.3,2,4.2,4,5.6c2,1.4,4.3,2,7.1,2c2.7,0,5.1-0.7,7-2
		s3.2-3.1,4-5.2c0.5-1.5,0.7-4.6,0.7-9.4V2.3h5V21c0,5.3-0.6,9.2-1.8,11.9s-3.1,4.8-5.6,6.3s-5.6,2.3-9.3,2.3s-6.8-0.8-9.3-2.3
		s-4.4-3.6-5.6-6.3c-1.2-2.7-1.8-6.8-1.8-12.2L31.8,2.3z"/>
	<path class="st0" d="M18.4,41.5c-3.7,0-6.8-0.8-9.3-2.3s-4.4-3.6-5.6-6.3s-1.8-6.8-1.8-12.2V2.3h4.9v17.8c0,4.4,0.2,7.4,0.7,9
		c0.7,2.3,2,4.2,4,5.6c2,1.4,4.3,2,7.1,2h11v4.8L18.4,41.5z"/>
	<path class="st0" d="M106.8,10.2l-3.9,2.4c-3.4-4.5-8-6.7-13.8-6.7c-4.7,0-8.5,1.5-11.6,4.5s-4.6,6.6-4.6,10.9
		c0,2.8,0.7,5.4,2.1,7.9s3.4,4.4,5.8,5.7c2.5,1.4,5.2,2,8.3,2c5.6,0,10.2-2.2,13.8-6.7l3.9,2.6c-1.8,2.7-4.3,4.9-7.4,6.4
		s-6.6,2.3-10.5,2.3c-6,0-11.1-1.9-15-5.8c-4-3.8-6-8.5-6-14c0-3.7,0.9-7.1,2.8-10.3s4.4-5.7,7.7-7.4c3.2-1.8,6.9-2.7,10.9-2.7
		c2.5,0,5,0.4,7.3,1.2c2.4,0.8,4.4,1.8,6,3C104.2,6.7,105.6,8.3,106.8,10.2"/>
	<path class="st0" d="M144.1,17.5c-0.7-2.6-1.6-4.7-2.9-6.3c-1.3-1.6-2.9-2.8-5-3.8S132,6,129.7,6c-3.7,0-7,1.2-9.7,3.6
		c-2,1.8-3.5,4.4-4.5,7.9H144.1z M144.1,27.8l4.1,2.2c-1.4,2.7-2.9,4.8-4.7,6.5c-1.8,1.6-3.8,2.9-6,3.7c-2.2,0.9-4.7,1.3-7.6,1.3
		c-6.2,0-11.1-2-14.6-6.1s-5.3-8.7-5.3-13.9c0-4.8,1.5-9.2,4.5-13c3.8-4.8,8.8-7.2,15.2-7.2c6.5,0,11.7,2.5,15.6,7.4
		c2.8,3.5,4.2,7.9,4.2,13.1h-34.4c0.1,4.4,1.5,8.1,4.3,10.9c2.7,2.8,6.1,4.3,10.2,4.3c1.9,0,3.8-0.3,5.7-1c1.8-0.7,3.4-1.6,4.7-2.7
		C141.2,32.1,142.6,30.3,144.1,27.8"/>
	<path class="st0" d="M189.5,10.2l-3.9,2.4c-3.4-4.5-8-6.7-13.8-6.7c-4.7,0-8.5,1.5-11.6,4.5s-4.6,6.6-4.6,10.9
		c0,2.8,0.7,5.4,2.1,7.9c1.4,2.5,3.4,4.4,5.8,5.7c2.5,1.4,5.2,2,8.3,2c5.6,0,10.2-2.2,13.8-6.7l3.9,2.6c-1.8,2.7-4.3,4.9-7.4,6.4
		c-3.1,1.5-6.6,2.3-10.5,2.3c-6,0-11.1-1.9-15-5.8c-4-3.8-6-8.5-6-14c0-3.7,0.9-7.1,2.8-10.3c1.9-3.2,4.4-5.7,7.7-7.4
		c3.3-1.8,6.9-2.7,10.9-2.7c2.5,0,5,0.4,7.3,1.2c2.4,0.8,4.3,1.8,6,3C186.9,6.7,188.3,8.3,189.5,10.2"/>
	<path class="st0" d="M210.6,5.4c-4.3,0-7.9,1.6-11,4.7s-4.6,7-4.6,11.4c0,2.9,0.7,5.6,2.1,8.1c1.4,2.5,3.3,4.4,5.7,5.8s5,2,7.8,2
		s5.5-0.7,7.8-2c2.4-1.4,4.3-3.3,5.7-5.8s2.1-5.2,2.1-8.1c0-4.5-1.5-8.3-4.6-11.4S214.8,5.4,210.6,5.4 M210.6,1.3
		c5.9,0,10.8,2.1,14.7,6.4c3.5,3.9,5.3,8.5,5.3,13.8s-1.9,10-5.6,14c-3.7,4-8.5,6-14.4,6s-10.7-2-14.4-6s-5.6-8.7-5.6-14
		s1.8-9.9,5.3-13.8C199.8,3.4,204.7,1.3,210.6,1.3"/>
</g>
<g>
	<path class="st0" d="M38.396,64.065c-0.902,1.003-2.005,1.404-3.309,1.404c-1.303,0-2.306-0.401-3.108-1.203
		c-1.203-1.203-1.203-2.206-1.203-5.013s0.1-3.91,1.203-5.013c0.802-0.802,1.805-1.203,3.108-1.203c2.306,0,4.011,1.604,4.311,3.71
		h-1.303c-0.301-1.604-1.504-2.507-3.008-2.507c-0.802,0-1.604,0.301-2.106,0.902c-0.802,0.802-0.902,1.704-0.902,4.211
		c0,2.507,0.1,3.409,0.902,4.211c0.602,0.602,1.303,0.902,2.106,0.902c0.902,0,1.805-0.401,2.306-1.103
		c0.501-0.602,0.702-1.303,0.702-2.206v-1.003h-3.008v-1.203h4.311v2.005C39.499,62.26,39.198,63.162,38.396,64.065z"/>
	<path class="st0" d="M77.398,65.368l-2.807-5.514h-3.008v5.514H70.28V53.036h4.712c2.106,0,3.609,1.303,3.609,3.409
		c0,1.805-1.103,3.008-2.707,3.309l2.908,5.615H77.398z M74.892,54.239h-3.309v4.512h3.309c1.404,0,2.507-0.702,2.507-2.206
		C77.398,54.941,76.296,54.239,74.892,54.239z"/>
	<path class="st0" d="M116.2,64.265c-0.802,0.802-1.805,1.203-3.108,1.203s-2.306-0.401-3.108-1.203
		c-1.203-1.203-1.203-2.206-1.203-5.013s0.1-3.91,1.203-5.013c0.802-0.802,1.805-1.203,3.108-1.203c1.303,0,2.306,0.401,3.108,1.203
		c1.203,1.203,1.203,2.206,1.203,5.013C117.403,61.959,117.403,63.062,116.2,64.265z M115.298,54.941
		c-0.602-0.602-1.303-0.902-2.106-0.902c-0.802,0-1.604,0.301-2.106,0.902c-0.802,0.802-0.902,1.704-0.902,4.211
		c0,2.507,0.1,3.409,0.902,4.211c0.602,0.602,1.303,0.902,2.106,0.902c0.802,0,1.604-0.301,2.106-0.902
		c0.802-0.802,0.902-1.704,0.902-4.211C116.1,56.645,116,55.743,115.298,54.941z"/>
	<path class="st0" d="M152.395,65.468c-2.507,0-4.311-1.704-4.311-4.211v-8.222h1.303v8.121c0,1.905,1.203,3.108,3.008,3.108
		s3.008-1.203,3.008-3.108v-8.121h1.303v8.222C156.706,63.764,154.902,65.468,152.395,65.468z"/>
	<path class="st0" d="M192.4,60.255h-3.309v5.113h-1.303V53.036h4.612c2.206,0,3.81,1.404,3.81,3.609
		C196.21,58.851,194.706,60.255,192.4,60.255z M192.3,54.239h-3.208v4.913h3.208c1.504,0,2.607-0.802,2.607-2.507
		C194.906,54.941,193.904,54.239,192.3,54.239z"/>
</g>
<g>
	<path class="st2" d="M210.6,10c-3,0-5.7,1.1-7.8,3.4c-2.2,2.3-3.3,5-3.3,8.2c0,2.1,0.5,4,1.5,5.8s2.3,3.2,4,4.1
		c1.7,1,3.6,1.4,5.6,1.4s3.9-0.5,5.6-1.4c1.7-1,3.1-2.3,4-4.1c1-1.8,1.5-3.7,1.5-5.8c0-3.2-1.1-5.9-3.3-8.2
		C216.2,11.1,213.6,10,210.6,10 M210.6,7.5c4.1,0,7.4,1.5,10.1,4.4c2.4,2.7,3.6,5.8,3.6,9.5s-1.3,6.9-3.8,9.6
		c-2.6,2.8-5.9,4.1-9.9,4.1s-7.3-1.4-9.9-4.1c-2.6-2.7-3.8-6-3.8-9.6s1.2-6.8,3.6-9.5C203.2,9,206.5,7.5,210.6,7.5"/>
	<path class="st3" d="M210.6,14.9c-1.7,0-3.2,0.6-4.5,1.9s-1.9,2.9-1.9,4.7c0,1.2,0.3,2.3,0.9,3.3c0.6,1,1.3,1.8,2.3,2.4
		s2,0.8,3.2,0.8s2.2-0.3,3.2-0.8c1-0.6,1.7-1.3,2.3-2.4c0.6-1,0.9-2.1,0.9-3.3c0-1.8-0.6-3.4-1.9-4.7
		C213.8,15.5,212.3,14.9,210.6,14.9 M210.6,12.2c2.7,0,4.9,1,6.7,2.9c1.6,1.8,2.4,3.9,2.4,6.3s-0.9,4.6-2.6,6.4
		c-1.7,1.8-3.9,2.7-6.6,2.7c-2.7,0-4.9-0.9-6.6-2.7c-1.7-1.8-2.6-4-2.6-6.4s0.8-4.5,2.4-6.3C205.7,13.2,207.9,12.2,210.6,12.2"/>
</g>
<path class="st2" d="M210.6,10c-3,0-5.7,1.1-7.8,3.4c-2.2,2.3-3.3,5-3.3,8.2c0,2.1,0.5,4,1.5,5.8s2.3,3.2,4,4.1
	c1.7,1,3.6,1.4,5.6,1.4s3.9-0.5,5.6-1.4c1.7-1,3.1-2.3,4-4.1c1-1.8,1.5-3.7,1.5-5.8c0-3.2-1.1-5.9-3.3-8.2
	C216.2,11.1,213.6,10,210.6,10 M210.6,7.5c4.1,0,7.4,1.5,10.1,4.4c2.4,2.7,3.6,5.8,3.6,9.5s-1.3,6.9-3.8,9.6
	c-2.6,2.8-5.9,4.1-9.9,4.1s-7.3-1.4-9.9-4.1c-2.6-2.7-3.8-6-3.8-9.6s1.2-6.8,3.6-9.5C203.2,9,206.5,7.5,210.6,7.5"/>
<path class="st3" d="M210.6,14.9c-1.7,0-3.2,0.6-4.5,1.9s-1.9,2.9-1.9,4.7c0,1.2,0.3,2.3,0.9,3.3c0.6,1,1.3,1.8,2.3,2.4
	s2,0.8,3.2,0.8s2.2-0.3,3.2-0.8c1-0.6,1.7-1.3,2.3-2.4c0.6-1,0.9-2.1,0.9-3.3c0-1.8-0.6-3.4-1.9-4.7
	C213.8,15.5,212.3,14.9,210.6,14.9 M210.6,12.2c2.7,0,4.9,1,6.7,2.9c1.6,1.8,2.4,3.9,2.4,6.3s-0.9,4.6-2.6,6.4
	c-1.7,1.8-3.9,2.7-6.6,2.7c-2.7,0-4.9-0.9-6.6-2.7c-1.7-1.8-2.6-4-2.6-6.4s0.8-4.5,2.4-6.3C205.7,13.2,207.9,12.2,210.6,12.2"/>
</svg>
